# xmcd
#
# Track frame offsets: 
#        150
#        15597
#        37764
#        58476
#        85518
#        105801
#
# Disc length: 1606 seconds
#
# Revision: 0
# Processed by: cddbd v1.5.2PL0 Copyright (c) Steve Scherf et al.
# Submitted via: ExactAudioCopyFreeDBPlugin 1.0
#
DISCID=36064406
DTITLE=Masontown - Masontown
DYEAR=2016
DGENRE=Bluegrass
TTITLE0=Going across the Sea
TTITLE1=Oh, Susanna
TTITLE2=Plantain Chips
TTITLE3=Georgia Buck
TTITLE4=Reservoir
TTITLE5=Bringing My Sweet Baby Back
EXTD=
EXTT0=
EXTT1=
EXTT2=
EXTT3=
EXTT4=
EXTT5=
PLAYORDER=
